<svg width="18" height="18" viewBox="0 0 18 18" xmlns="http://www.w3.org/2000/svg">
    <g fill="#98999A" fill-rule="nonzero">
        <path d="M.741 3.52H2.77a2.763 2.763 0 0 0 5.333 0h8.945a.741.741 0 1 0 0-1.482H8.102a2.763 2.763 0 0 0-5.333 0H.741a.741.741 0 0 0 0 1.483zm4.694-2.038a1.297 1.297 0 1 1 0 2.594 1.297 1.297 0 0 1 0-2.594zM17.047 8.153H15.02a2.762 2.762 0 0 0-5.332 0H.741a.741.741 0 0 0 0 1.482h8.946a2.762 2.762 0 0 0 5.332 0h2.028a.741.741 0 1 0 0-1.482zm-4.694 2.038a1.297 1.297 0 1 1 0-2.594 1.297 1.297 0 0 1 0 2.594zM17.047 14.268H8.102a2.763 2.763 0 0 0-5.333 0H.741a.741.741 0 1 0 0 1.482H2.77a2.763 2.763 0 0 0 5.333 0h8.945a.741.741 0 1 0 0-1.482zM5.435 16.306a1.297 1.297 0 1 1 0-2.594 1.297 1.297 0 0 1 0 2.594z"/>
    </g>
</svg>
