<svg width="20" height="18" viewBox="0 0 20 18" xmlns="http://www.w3.org/2000/svg">
    <g fill="#FF4B00" fill-rule="evenodd">
        <path d="M5.24 1.822c1.06 0 1.962.518 2.68 1.539.59.838.831 1.706.833 1.712a.884.884 0 0 0 .847.668.884.884 0 0 0 .847-.668c.009-.033.898-3.25 3.514-3.25 1.984 0 3.481 1.718 3.481 3.996 0 1.651-.827 3.104-2.951 5.182-.902.882-1.965 1.812-3.195 2.889-.548.479-1.11.97-1.696 1.492-.587-.522-1.149-1.014-1.696-1.493-3.833-3.354-6.146-5.378-6.146-8.07 0-2.278 1.496-3.997 3.481-3.997zm1.53 13.46c.72.63 1.464 1.28 2.254 1.991a.859.859 0 0 0 1.152 0c.79-.71 1.534-1.361 2.254-1.99 1.25-1.095 2.33-2.04 3.267-2.957 1.82-1.78 3.503-3.8 3.503-6.507 0-1.539-.51-2.98-1.435-4.058C16.791.626 15.44 0 13.961 0c-1.651 0-3.082.81-4.138 2.34-.08.115-.154.23-.223.343a7.265 7.265 0 0 0-.223-.343C8.321.81 6.89 0 5.24 0 3.761 0 2.41.626 1.434 1.761.51 2.84 0 4.281 0 5.82c0 1.672.626 3.215 1.97 4.856 1.172 1.432 2.853 2.903 4.8 4.607z"/>
        <path d="M9.6 3.341 4.19 1.098 1.758 3.341C1.173 4.76.88 5.784.88 6.415c0 .631.292 1.36.877 2.187 1.328 2.107 2.139 3.16 2.432 3.16.293 0 2.096 1.911 5.41 5.734l7.842-8.748C18.614 7.75 19.2 6.973 19.2 6.415c0-.557-.358-1.582-1.074-3.074l-.684-1.469-4.3-.774L9.6 3.341z"/>
    </g>
</svg>
