<svg width="16" height="14" viewBox="0 0 16 14" xmlns="http://www.w3.org/2000/svg">
    <path d="M4.218 1.386c.854 0 1.58.393 2.158 1.17.475.636.67 1.297.67 1.301.086.3.365.508.683.508a.705.705 0 0 0 .682-.508c.007-.025.723-2.471 2.828-2.471 1.598 0 2.803 1.306 2.803 3.039 0 1.255-.666 2.36-2.376 3.94-.726.67-1.581 1.377-2.572 2.196-.44.364-.893.738-1.365 1.135-.473-.397-.925-.77-1.366-1.135-3.085-2.55-4.948-4.09-4.948-6.136 0-1.733 1.205-3.04 2.803-3.04zM5.451 11.62c.579.479 1.178.974 1.814 1.514a.715.715 0 0 0 .927 0c.637-.54 1.235-1.035 1.815-1.514 1.007-.832 1.876-1.55 2.63-2.248 1.465-1.353 2.82-2.889 2.82-4.947 0-1.17-.41-2.266-1.154-3.086A4.085 4.085 0 0 0 11.239 0C9.91 0 8.76.615 7.91 1.78a5.6 5.6 0 0 0-.18.26 5.5 5.5 0 0 0-.18-.26C6.7.614 5.547 0 4.22 0c-1.191 0-2.28.476-3.064 1.34C.41 2.158 0 3.254 0 4.424c0 1.271.504 2.444 1.585 3.692.944 1.088 2.298 2.207 3.866 3.503z" fill="#0D0C22" fill-rule="evenodd"/>
</svg>
