<svg width="14" height="12" viewBox="0 0 14 12" xmlns="http://www.w3.org/2000/svg">
    <g fill="#FFF" fill-rule="evenodd">
        <path d="M3.668 1.215c.742 0 1.373.345 1.876 1.026.413.558.582 1.137.583 1.14a.614.614 0 0 0 .593.446c.276 0 .519-.182.593-.445.006-.022.629-2.167 2.46-2.167 1.389 0 2.437 1.145 2.437 2.664 0 1.101-.58 2.07-2.067 3.455-.63.588-1.375 1.208-2.236 1.926-.383.319-.776.647-1.187.994-.41-.347-.804-.675-1.187-.994C2.85 7.024 1.23 5.674 1.23 3.88c0-1.52 1.048-2.665 2.438-2.665zm1.071 8.973c.504.42 1.025.854 1.578 1.328a.618.618 0 0 0 .806 0c.553-.474 1.074-.908 1.578-1.328.875-.73 1.63-1.36 2.287-1.97C12.26 7.03 13.44 5.684 13.44 3.879c0-1.025-.357-1.986-1.004-2.705A3.538 3.538 0 0 0 9.772 0C8.617 0 7.615.54 6.876 1.56a4.911 4.911 0 0 0-.156.229 4.824 4.824 0 0 0-.156-.229C5.824.54 4.823 0 3.668 0a3.538 3.538 0 0 0-2.664 1.174C.357 1.893 0 2.854 0 3.88c0 1.115.438 2.144 1.379 3.238.82.954 1.997 1.935 3.36 3.071z"/>
        <path d="M6.72 2.227 2.933.732 1.23 2.227c-.409.946-.613 1.63-.613 2.05 0 .42.204.906.613 1.458.93 1.404 1.498 2.106 1.703 2.106.205 0 1.467 1.275 3.787 3.823l5.49-5.832c.82-.665 1.23-1.184 1.23-1.555 0-.372-.25-1.055-.752-2.05l-.478-.979L9.2.732 6.72 2.227z"/>
    </g>
</svg>
