<svg width="18" height="16" viewBox="0 0 18 16" xmlns="http://www.w3.org/2000/svg">
    <path d="M4.715 1.62c.955 0 1.767.46 2.413 1.367.53.745.748 1.517.75 1.522.095.351.406.594.762.594a.794.794 0 0 0 .762-.594c.008-.029.809-2.889 3.163-2.889 1.786 0 3.133 1.527 3.133 3.553 0 1.467-.745 2.758-2.656 4.605-.812.784-1.768 1.611-2.876 2.568-.493.426-.998.863-1.526 1.327-.528-.464-1.034-.901-1.526-1.327-3.45-2.981-5.532-4.78-5.532-7.173 0-2.026 1.347-3.553 3.133-3.553zm1.378 11.964c.648.56 1.317 1.139 2.029 1.77a.778.778 0 0 0 1.036 0c.711-.631 1.381-1.21 2.029-1.77 1.125-.972 2.097-1.812 2.94-2.627 1.638-1.582 3.153-3.378 3.153-5.784 0-1.368-.459-2.65-1.291-3.607A4.477 4.477 0 0 0 12.565 0C11.079 0 9.79.72 8.84 2.08a6.565 6.565 0 0 0-.2.305 6.45 6.45 0 0 0-.2-.305C7.488.72 6.2 0 4.714 0c-1.33 0-2.547.556-3.424 1.566C.459 2.524 0 3.805 0 5.173 0 6.659.563 8.03 1.772 9.489c1.055 1.272 2.569 2.58 4.321 4.095z" fill="#5D5D5D" fill-rule="evenodd" opacity=".502"/>
</svg>
