<svg width="80" height="80" viewBox="0 0 80 80" xmlns="http://www.w3.org/2000/svg">
    <g fill="none" fill-rule="evenodd">
        <circle fill="#F7F7F7" cx="40" cy="40" r="40"/>
        <g opacity=".623" fill="#000" fill-rule="nonzero">
            <path d="M48.83 24H30.533A6.542 6.542 0 0 0 24 30.534v18.295a6.542 6.542 0 0 0 6.534 6.534h18.295a6.542 6.542 0 0 0 6.534-6.534V30.534A6.542 6.542 0 0 0 48.83 24zm-18.296 2.614h18.295a3.92 3.92 0 0 1 3.92 3.92v18.295a3.856 3.856 0 0 1-.391 1.68L40.383 38.533a6.534 6.534 0 0 0-9.241 0l-4.528 4.527V30.534a3.92 3.92 0 0 1 3.92-3.92zm0 26.136a3.92 3.92 0 0 1-3.92-3.92v-2.073l6.374-6.375a3.92 3.92 0 0 1 5.546 0l11.974 11.976a3.856 3.856 0 0 1-1.679.392H30.534z"/>
            <path d="M44.909 37.721a4.574 4.574 0 1 0 0-9.147 4.574 4.574 0 0 0 0 9.147zm0-6.534a1.96 1.96 0 1 1 0 3.92 1.96 1.96 0 0 1 0-3.92z"/>
        </g>
    </g>
</svg>
