<svg width="20" height="20" viewBox="0 0 20 20" xmlns="http://www.w3.org/2000/svg">
    <g fill="#717987" fill-rule="nonzero">
        <path d="M18.013 14.23v1.54c0 1.274-1.076 2.307-2.404 2.307H4.391c-1.328 0-2.404-1.033-2.404-2.308v-1.538c0-.425-.359-.77-.801-.77-.443 0-.801.345-.801.77v1.538c.002 2.123 1.794 3.844 4.006 3.846h11.218c2.212-.002 4.004-1.723 4.006-3.846v-1.538c0-.425-.358-.77-.8-.77-.443 0-.802.345-.802.77z"/>
        <path d="m15.518 4.808-3.78-3.715a2.51 2.51 0 0 0-3.496 0l-3.78 3.715a.8.8 0 0 0 .01 1.135.835.835 0 0 0 1.156.01l3.538-3.476V14.96c0 .447.369.81.824.81a.817.817 0 0 0 .824-.81V2.476l3.538 3.476c.207.211.514.295.802.221a.817.817 0 0 0 .588-.578.8.8 0 0 0-.224-.787z"/>
    </g>
</svg>
