<svg width="9" height="13" viewBox="0 0 9 13" fill="none" xmlns="http://www.w3.org/2000/svg">
<path d="M4.19646 0.976562C2.05263 0.976562 0.318726 2.71047 0.318726 4.8543C0.318726 5.8182 0.595707 6.72115 1.09981 7.53548C1.62608 8.38858 2.31853 9.11981 2.85033 9.97291C3.1107 10.3884 3.29904 10.7762 3.49847 11.2249C3.6425 11.5295 3.75883 12.0558 4.19646 12.0558C4.63409 12.0558 4.75043 11.5295 4.88892 11.2249C5.09388 10.7762 5.27669 10.3884 5.53705 9.97291C6.06886 9.12535 6.76131 8.39412 7.28757 7.53548C7.79722 6.72115 8.0742 5.8182 8.0742 4.8543C8.0742 2.71047 6.3403 0.976562 4.19646 0.976562ZM4.19646 6.3777C3.432 6.3777 2.81156 5.75726 2.81156 4.99279C2.81156 4.22832 3.432 3.60788 4.19646 3.60788C4.96093 3.60788 5.58137 4.22832 5.58137 4.99279C5.58137 5.75726 4.96093 6.3777 4.19646 6.3777Z" fill="#7F7F7F"/>
</svg>
