<svg width="107" height="22" viewBox="0 0 107 22" fill="none" xmlns="http://www.w3.org/2000/svg">
<g clip-path="url(#clip0_551_4477)">
<path d="M0 18.6669L2.46 16.0169C3.54 17.3669 4.82 18.0869 6.06 18.0869C7.98 18.0869 8.97 17.2469 8.97 14.6569V6.13687H1.59V2.54688H13.25V15.0169C13.25 18.7169 11.43 21.7869 6.2 21.7869C4.11 21.7869 1.64 20.9669 0 18.6669Z" fill="#232323"/>
<path d="M17.6009 9.04281C18.2509 7.78281 19.1309 6.82281 20.2409 6.14281C21.3509 5.46281 22.5909 5.13281 23.9609 5.13281C25.1609 5.13281 26.2109 5.37281 27.1009 5.85281C27.9909 6.33281 28.7209 6.94281 29.2609 7.68281V5.39281H33.3509V21.4428H29.2609V19.0928C28.7409 19.8428 28.0209 20.4728 27.1009 20.9628C26.1809 21.4528 25.1209 21.7028 23.9309 21.7028C22.5809 21.7028 21.3509 21.3528 20.2409 20.6628C19.1309 19.9628 18.2509 18.9828 17.6009 17.7228C16.9509 16.4628 16.6309 15.0028 16.6309 13.3628C16.6309 11.7228 16.9509 10.3028 17.6009 9.04281ZM28.6809 10.8828C28.2909 10.1728 27.7709 9.63281 27.1209 9.26281C26.4609 8.88281 25.7609 8.69281 25.0009 8.69281C24.2409 8.69281 23.5509 8.87281 22.9109 9.24281C22.2709 9.61281 21.7609 10.1428 21.3609 10.8528C20.9609 11.5628 20.7709 12.3928 20.7709 13.3628C20.7709 14.3328 20.9709 15.1728 21.3609 15.9028C21.7609 16.6228 22.2809 17.1828 22.9209 17.5728C23.5709 17.9628 24.2609 18.1528 24.9909 18.1528C25.7209 18.1528 26.4509 17.9628 27.1109 17.5828C27.7709 17.2028 28.2909 16.6628 28.6709 15.9628C29.0609 15.2528 29.2509 14.4128 29.2509 13.4228C29.2509 12.4328 29.0609 11.5928 28.6709 10.8828H28.6809Z" fill="#232323"/>
<path d="M43.5403 5.85C44.4603 5.37 45.5103 5.13 46.6803 5.13C48.0503 5.13 49.2903 5.47 50.4003 6.14C51.5103 6.82 52.3903 7.78 53.0403 9.02C53.6903 10.27 54.0103 11.71 54.0103 13.35C54.0103 14.99 53.6903 16.45 53.0403 17.71C52.3903 18.98 51.5103 19.96 50.4003 20.65C49.2903 21.35 48.0503 21.69 46.6803 21.69C45.4803 21.69 44.4303 21.45 43.5403 20.98C42.6403 20.51 41.9203 19.89 41.3803 19.14V21.43H37.3203V0H41.3803V7.74C41.9003 6.97 42.6203 6.34 43.5403 5.86V5.85ZM49.2803 10.85C48.8803 10.14 48.3603 9.61 47.7203 9.24C47.0703 8.87 46.3703 8.69 45.6203 8.69C44.8703 8.69 44.2003 8.88 43.5503 9.26C42.9003 9.64 42.3803 10.18 41.9903 10.9C41.6003 11.62 41.4003 12.46 41.4003 13.42C41.4003 14.38 41.6003 15.23 41.9903 15.94C42.3903 16.66 42.9103 17.2 43.5503 17.58C44.2003 17.96 44.8903 18.15 45.6203 18.15C46.3503 18.15 47.0703 17.96 47.7203 17.57C48.3703 17.18 48.8903 16.63 49.2803 15.92C49.6803 15.21 49.8703 14.36 49.8703 13.37C49.8703 12.38 49.6703 11.57 49.2803 10.86V10.85Z" fill="#232323"/>
<path d="M63.1809 5.85C64.1009 5.37 65.1509 5.13 66.3209 5.13C67.6909 5.13 68.9309 5.47 70.0409 6.14C71.1509 6.81 72.0309 7.78 72.6809 9.02C73.3309 10.27 73.6509 11.71 73.6509 13.35C73.6509 14.99 73.3309 16.45 72.6809 17.71C72.0309 18.98 71.1509 19.96 70.0409 20.65C68.9309 21.35 67.6909 21.69 66.3209 21.69C65.1209 21.69 64.0809 21.45 63.1809 20.98C62.2809 20.51 61.5609 19.89 61.0209 19.14V21.43H56.9609V0H61.0209V7.74C61.5409 6.97 62.2609 6.34 63.1809 5.86V5.85ZM68.9209 10.85C68.5209 10.14 68.0009 9.61 67.3609 9.24C66.7109 8.87 66.0109 8.69 65.2609 8.69C64.5109 8.69 63.8409 8.88 63.1909 9.26C62.5409 9.64 62.0209 10.18 61.6209 10.9C61.2209 11.62 61.0309 12.46 61.0309 13.42C61.0309 14.38 61.2309 15.23 61.6209 15.94C62.0209 16.66 62.5409 17.2 63.1909 17.58C63.8409 17.96 64.5309 18.15 65.2609 18.15C65.9909 18.15 66.7109 17.96 67.3609 17.57C68.0109 17.18 68.5309 16.63 68.9209 15.92C69.3209 15.21 69.5109 14.36 69.5109 13.37C69.5109 12.38 69.3109 11.57 68.9209 10.86V10.85Z" fill="#232323"/>
<path d="M80.6694 0V21.44H76.6094V0H80.6694Z" fill="#232323"/>
<path d="M99.4809 14.6272H87.7409C87.8409 15.7872 88.2409 16.6972 88.9609 17.3472C89.6709 18.0072 90.5509 18.3372 91.6009 18.3372C93.1109 18.3372 94.1809 17.6872 94.8209 16.3972H99.2009C98.7409 17.9472 97.8509 19.2172 96.5309 20.2072C95.2209 21.2072 93.6009 21.6972 91.6909 21.6972C90.1409 21.6972 88.7609 21.3572 87.5309 20.6672C86.3009 19.9772 85.3509 19.0072 84.6609 17.7572C83.9709 16.4972 83.6309 15.0572 83.6309 13.4072C83.6309 11.7572 83.9709 10.2872 84.6409 9.02719C85.3209 7.76719 86.2609 6.80719 87.4809 6.12719C88.7009 5.44719 90.1009 5.11719 91.6809 5.11719C93.2609 5.11719 94.5709 5.44719 95.7809 6.09719C96.9909 6.75719 97.9209 7.68719 98.5909 8.89719C99.2609 10.1072 99.5909 11.4872 99.5909 13.0572C99.5909 13.6372 99.5509 14.1572 99.4709 14.6172L99.4809 14.6272ZM95.3909 11.9072C95.3709 10.8672 94.9909 10.0272 94.2609 9.39719C93.5309 8.76719 92.6309 8.45719 91.5709 8.45719C90.5709 8.45719 89.7209 8.75719 89.0309 9.36719C88.3409 9.97719 87.9209 10.8172 87.7709 11.9072H95.3909Z" fill="#232323"/>
<path d="M102.27 19.3188C102.24 18.0188 103.32 16.9588 104.65 16.9688C105.91 16.9588 107 18.0188 107 19.3188C107 20.6188 105.91 21.6988 104.65 21.6988C103.32 21.6988 102.24 20.6388 102.27 19.3188Z" fill="#991F32"/>
</g>
<defs>
<clipPath id="clip0_551_4477">
<rect width="107" height="21.79" fill="white"/>
</clipPath>
</defs>
</svg>
