<svg width="16" height="15" viewBox="0 0 16 15" xmlns="http://www.w3.org/2000/svg">
    <path d="M12.667 1.364H8.315a.667.667 0 0 1-.298-.069L5.913.215A1.973 1.973 0 0 0 5.019 0H3.333C1.493.002.003 1.527 0 3.41v8.18c.002 1.883 1.493 3.408 3.333 3.41h9.334c1.84-.002 3.33-1.527 3.333-3.41V4.774c-.002-1.882-1.493-3.407-3.333-3.41zm-9.334 0H5.02c.103-.001.205.022.298.068L7.42 2.508c.277.143.583.218.894.22h4.352a2 2 0 0 1 1.852 1.282l-13.186.077v-.678c0-1.13.896-2.045 2-2.045zm9.334 12.272H3.333c-1.104 0-2-.915-2-2.045V5.45l13.334-.078v6.218c0 1.13-.896 2.045-2 2.045z" fill="#B1B3B3" fill-rule="nonzero"/>
</svg>
