<svg width="14" height="14" viewBox="0 0 14 14" xmlns="http://www.w3.org/2000/svg">
    <g fill="#000" fill-rule="nonzero">
        <path d="M12.833 9.917v1.166a1.75 1.75 0 0 1-1.75 1.75H2.917a1.75 1.75 0 0 1-1.75-1.75V9.917a.583.583 0 0 0-1.167 0v1.166A2.92 2.92 0 0 0 2.917 14h8.166A2.92 2.92 0 0 0 14 11.083V9.917a.583.583 0 1 0-1.167 0z"/>
        <path d="M10.912 3.186 8.237.51a1.754 1.754 0 0 0-2.474 0L3.088 3.186a.583.583 0 0 0 .824.825l2.505-2.504V10.5a.583.583 0 0 0 1.166 0V1.507l2.505 2.504a.583.583 0 1 0 .824-.825z"/>
    </g>
</svg>
