<svg width="16" height="16" viewBox="0 0 16 16" xmlns="http://www.w3.org/2000/svg">
    <g fill="#FFF" fill-rule="nonzero">
        <path d="M14.08 11.52v1.28c0 1.06-.86 1.92-1.92 1.92H3.2a1.92 1.92 0 0 1-1.92-1.92v-1.28a.64.64 0 0 0-1.28 0v1.28A3.204 3.204 0 0 0 3.2 16h8.96a3.204 3.204 0 0 0 3.2-3.2v-1.28a.64.64 0 0 0-1.28 0z"/>
        <path d="M11.972 4.136 9.037 1.2a1.924 1.924 0 0 0-2.714 0L3.388 4.136a.64.64 0 0 0 .904.905L7.04 2.294v9.866a.64.64 0 1 0 1.28 0V2.293l2.748 2.748a.64.64 0 1 0 .904-.905z"/>
    </g>
</svg>
