<svg width="80" height="80" viewBox="0 0 80 80" xmlns="http://www.w3.org/2000/svg">
    <g fill="none" fill-rule="evenodd">
        <circle fill="#F7F7F7" cx="40" cy="40" r="40"/>
        <path d="M48.83 55.363H30.533A6.542 6.542 0 0 1 24 48.83V30.534A6.542 6.542 0 0 1 30.534 24h18.295a6.542 6.542 0 0 1 6.534 6.534v18.295a6.542 6.542 0 0 1-6.534 6.534zm-18.296-28.75a3.92 3.92 0 0 0-3.92 3.921v18.295a3.92 3.92 0 0 0 3.92 3.92h18.295a3.92 3.92 0 0 0 3.92-3.92V30.534a3.92 3.92 0 0 0-3.92-3.92H30.534zm5.674 19.61a3.095 3.095 0 0 1-1.55-.423 3.023 3.023 0 0 1-1.52-2.641v-6.955a3.054 3.054 0 0 1 4.573-2.651l6.897 3.443a3.053 3.053 0 0 1 .064 5.337l-7.025 3.511c-.438.25-.934.38-1.439.378zm-.033-10.455a.428.428 0 0 0-.425.436v6.955a.44.44 0 0 0 .654.383l7.026-3.513a.41.41 0 0 0 .156-.347.425.425 0 0 0-.22-.382l-6.893-3.443a.604.604 0 0 0-.298-.09z" opacity=".623" fill="#000" fill-rule="nonzero"/>
    </g>
</svg>
