<svg width="16" height="12" viewBox="0 0 16 12" xmlns="http://www.w3.org/2000/svg">
    <g fill="#FFF" fill-rule="evenodd">
        <path d="M14.742 4.221C13.76 2.645 11.525 0 7.603 0S1.447 2.645.465 4.221a3.025 3.025 0 0 0 0 3.222c.982 1.576 3.216 4.221 7.138 4.221 3.922 0 6.157-2.645 7.139-4.221.62-.987.62-2.235 0-3.222zm-1.08 2.568c-.844 1.352-2.753 3.627-6.059 3.627-3.305 0-5.215-2.275-6.059-3.627a1.798 1.798 0 0 1 0-1.914c.844-1.352 2.754-3.627 6.06-3.627 3.305 0 5.214 2.272 6.058 3.627a1.798 1.798 0 0 1 0 1.914z" fill-rule="nonzero"/>
        <path d="m6.057 0 3.815.766 1.255.482L12.83 2.7l1.22 1.577v2.472l-.764 1.675-2.159 1.791L8 11.664l-3.825-1.449L1.38 7.387 1 5.832c.223-.733.476-1.364.76-1.894.284-.53.863-1.216 1.737-2.056L6.057 0zM7.5 3a2.5 2.5 0 1 0 0 5 2.5 2.5 0 0 0 0-5z"/>
    </g>
</svg>
